<?xml version="1.0" encoding="utf-8"?>
<!-- Generator: Adobe Illustrator 24.3.0, SVG Export Plug-In . SVG Version: 6.00 Build 0)  -->
<svg version="1.1" id="Layer_1" xmlns="http://www.w3.org/2000/svg" xmlns:xlink="http://www.w3.org/1999/xlink" x="0px" y="0px"
	 viewBox="0 0 2000 846" style="enable-background:new 0 0 2000 846;" xml:space="preserve">
<style type="text/css">
	.st0{fill:#FF6347;}
	.st1{font-family:'Luminari-Regular';}
	.st2{font-size:182.1937px;}
	.st3{fill-rule:evenodd;clip-rule:evenodd;fill:#FAEBD7;}
</style>
<g>
	<text transform="matrix(0.7971 0 0 1 623.0518 376.5974)" class="st0 st1 st2">ChiseledFit</text>
	<path class="st3" d="M387.5,487.9c55.7-55.8,61.6-126.3,36-183.2c-23.3-51.5-77.7-86.8-135.5-67.6c-49.9-44.5-123-25.2-160.7,30
		c-23.3,34.1-29.2,77.9-22.2,118c10.3,59.6,52.2,103.1,125.3,101c12.5,11.9,26.4,21.1,42,27.2c34.1,23.8,40.3,51.9,60.4,77.8
		l27.7,35.2c14.9,18.9,25.3,25.2,48.1,34.6c22.8,9.3,46.3,16.5,69.2,25.5c15.1,5.9,23.5-2.4,35.1-9.8c12.3-7.8,24.2-16.7,34.4-30.2
		c9.6-12.6,16.8-27.4,23.7-41.6c16.9-34.6,31.8-73.8,48.2-109.4c20.4,7.6,32.3,27,48.4,40.5c13-41.5,16.9-106-30.3-133.5
		c-16-9.3-31-21.9-16.6-30.1c4.8-2.7,10.2-3.9,15.7-4.9c-30.9-6.7-58.1,25.4-83,17.3c-10.8-3.5-18.6-15.8-24-35.5
		c-4.9,4.7-9.2,9.8-13.1,15.3c-5.1,7.2-6.7,12.9-11.1,0.7c-18.3-50.7,28.8-98.1,73.7-111.9c-18.7,12.3-33,28.6-42.5,49.3
		c35.1-41.9,96.4-50.4,146.6-56.3c-87-32.1-215.3,26.2-196.4,123.8c-30.5,19.8-47.3,53.5-34.3,118.1l-2.1,9.9
		C431.8,487.5,404.9,498.7,387.5,487.9L387.5,487.9z M342.6,406.8c9.5,0.1,17.4-8.2,18.7-19.1h0c-1.3,14.5-11,25.8-22.5,25.6
		c-12.3-0.2-22-13.2-21.8-29c0.2-15.8,10.4-28.5,22.7-28.3c12.3,0.2,22,13.1,21.8,28.9c0.2-12.1-8-22.1-18.2-22.3
		c-10.2-0.2-18.7,9.6-18.9,21.7C324.2,396.6,332.3,406.6,342.6,406.8L342.6,406.8z M329.5,296.1c39.2,0.6,70.3,39.1,69.6,85.9
		c-0.7,46.8-33.1,84.3-72.2,83.7c-39.2-0.6-70.3-39.1-69.6-85.9C258,333,290.4,295.5,329.5,296.1L329.5,296.1z M476.4,494.8
		c18.1,22.8,39.9,18.8,61.3,3.8c21.6-15.1,28.8-36.1,31.9-58.6c-14.4,20-55.1,70.4-84.5,47.4c-27.7-21.6-23.3-67.3,3.3-87.3
		c33-25,68.7-16.3,76.2,20.9c0-6.5-2.1-16.7,1.9-22.2c5.7-7.8,13.4,7.9,17,14c21.8,36.6,3.2,80.1-8.1,117.3l-8.8-9.4
		c0.3,33-7.3,59.7-22.3,80.6c-5.5,7.7-12,14-19,20.4c-3.3,3.1-5.9,3.4-7.6,0.8c-3-4.5-2.1-10.1-5.7-15.2c-3.9,20-14,27-32.2,31.5
		c-61.9,15.5-94.4-21.4-133.5-66.5l51.3,3.4c-35.2-7.6-66.2-24.6-92.2-52.8c22.7-0.8,44.4-5.9,64.2-19.5
		c45.7,26.6,82.9-15.2,137.5,59.1c-4.5-23.9-15.7-43.7-40.2-55.6C468.3,501.5,471.7,497.7,476.4,494.8L476.4,494.8z M234.1,309.3
		c-15.1,23.7-24.5,64.2-21.7,91.8c2.6,24.8,12.7,48.3,23.5,71.6c-17.8-22.1-28.6-46-31.3-72.2c-3.3-31.5,4.9-70.3,23.8-96.2
		c13.8-18.8,32.6-31.9,51.8-44.4C262.7,275.5,245.7,291.2,234.1,309.3L234.1,309.3z M122.8,372.1c2.6,24.8,12.7,48.3,23.5,71.6
		c-17.9-22.1-28.6-46-31.3-72.2c-3.3-31.5,4.9-70.3,23.8-96.2c13.8-18.8,32.6-31.9,51.8-44.4c-17.6,15.5-34.6,31.2-46.2,49.3
		C129.4,304,120,344.5,122.8,372.1L122.8,372.1z M664.4,495.7c-14.1-10.9-26.8-23.4-37.1-38.4c-21.8-31.7,9.9-45.4,24.2-17.2
		C660.1,457.1,664.2,475.7,664.4,495.7z"/>
	<path class="st3" d="M1612.5,489.9c-17.3,10.8-44.3-0.4-62.8,10.3l-2.1-9.9c13-64.6-3.9-98.4-34.3-118.1
		c18.9-97.6-105.5-142.5-184.5-93.2c50.1,6,99.6-16.2,134.6,25.7c-9.5-20.8-23.8-37.1-42.5-49.3c44.9,13.9,92.1,61.2,73.7,111.9
		c-4.4,12.2-6,6.5-11.1-0.7c-3.9-5.5-8.2-10.6-13.1-15.3c-5.4,19.6-13.2,32-24,35.5c-24.9,8.1-52.1-23.9-83-17.3
		c5.5,1,11,2.2,15.7,4.9c14.4,8.2-0.7,20.8-16.6,30.1c-47.2,27.5-43.3,92-30.3,133.5c16.1-13.5,28.1-32.9,48.4-40.5
		c16.5,35.6,31.4,74.8,48.2,109.4c6.9,14.2,14.1,29,23.7,41.6c10.2,13.5,22.1,22.4,34.4,30.2c11.6,7.4,20,15.7,35.1,9.8
		c22.9-9,46.4-16.2,69.2-25.5c22.8-9.3,33.3-15.6,48.1-34.6l27.7-35.2c20.1-25.9,26.4-54,60.4-77.8c15.6-6,29.5-15.2,42-27.2
		c73.1,2.1,115-41.4,125.3-101c7-40.1,1.1-84-22.2-118c-37.7-55.2-110.8-74.5-160.7-30c-57.8-19.2-112.2,16.1-135.5,67.6
		C1550.8,363.5,1556.8,434.1,1612.5,489.9L1612.5,489.9z M1657.4,408.8c10.2-0.2,18.4-10.1,18.2-22.3c-0.2-12.2-8.6-21.9-18.9-21.7
		c-10.2,0.2-18.3,10.1-18.2,22.3c-0.2-15.8,9.5-28.7,21.8-28.9c12.3-0.2,22.4,12.5,22.7,28.3c0.2,15.8-9.5,28.8-21.8,29
		c-11.6,0.2-21.3-11.1-22.5-25.6h0C1640,400.6,1648,408.9,1657.4,408.8L1657.4,408.8z M1670.5,298.1c39.2-0.6,71.5,36.9,72.2,83.7
		c0.7,46.8-30.4,85.3-69.6,85.9c-39.2,0.6-71.5-36.9-72.2-83.7C1600.2,337.2,1631.3,298.7,1670.5,298.1L1670.5,298.1z M1523.6,496.8
		c4.7,2.9,8.1,6.7,9.5,12.1c-24.5,11.9-35.7,31.7-40.2,55.6c54.6-74.3,91.8-32.4,137.5-59.1c19.8,13.6,41.5,18.7,64.2,19.5
		c-26,28.2-57.1,45.1-92.2,52.8l51.3-3.4c-39.1,45.2-71.5,82-133.5,66.5c-18.2-4.5-28.3-11.5-32.2-31.5c-3.7,5.1-2.7,10.7-5.7,15.2
		c-1.8,2.6-4.3,2.4-7.6-0.8c-6.9-6.4-13.4-12.7-19-20.4c-15-20.9-22.7-47.6-22.3-80.6l-8.8,9.4c-11.3-37.2-29.9-80.7-8.1-117.3
		c3.7-6.2,11.4-21.8,17-14c4,5.5,2,15.7,1.9,22.2c7.5-37.3,43.2-45.9,76.2-20.9c26.5,20.1,30.9,65.7,3.3,87.3
		c-29.4,22.9-70.1-27.4-84.5-47.4c3.2,22.6,10.3,43.5,31.9,58.6C1483.8,515.6,1505.6,519.5,1523.6,496.8L1523.6,496.8z
		 M1765.9,311.3c-11.6-18.2-28.6-33.9-46.2-49.3c19.2,12.5,38,25.5,51.8,44.4c18.9,25.8,27.1,64.7,23.8,96.2
		c-2.7,26.1-13.4,50.1-31.3,72.2c10.8-23.3,20.9-46.8,23.5-71.6C1790.4,375.5,1781,335,1765.9,311.3L1765.9,311.3z M1877.2,374.1
		c2.8-27.6-6.6-68.1-21.7-91.8c-11.6-18.2-28.6-33.9-46.2-49.3c19.2,12.5,38,25.5,51.8,44.4c18.9,25.8,27.1,64.7,23.8,96.2
		c-2.7,26.1-13.4,50.1-31.3,72.2C1864.5,422.4,1874.6,398.9,1877.2,374.1L1877.2,374.1z M1348.5,442.1c14.3-28.2,46-14.5,24.2,17.2
		c-10.4,15.1-23.1,27.5-37.1,38.4C1335.8,477.7,1339.9,459.1,1348.5,442.1z"/>
</g>
</svg>
