<svg id="Layer_1" data-name="Layer 1" xmlns="http://www.w3.org/2000/svg" viewBox="0 0 246 98"><defs><style>.cls-1{font-size:37.36px;fill:tomato;font-family:Luminari-Regular, Luminari;}.cls-2{fill:#faebd7;fill-rule:evenodd;}</style></defs><text class="cls-1" transform="translate(71.35 33.65) scale(0.53 1)">ChiseledFit</text><path class="cls-2" d="M41.07,57.47C48.71,46,49.52,31.56,46,19.91,42.81,9.35,35.35,2.12,27.44,6.05,20.6-3.08,10.58.89,5.42,12.2c-3.19,7-4,16-3,24.21,1.41,12.21,7.15,21.14,17.17,20.7a18.38,18.38,0,0,0,5.76,5.57c4.67,4.89,5.52,10.64,8.28,16l3.8,7.22A15,15,0,0,0,44,93c3.13,1.91,6.35,3.39,9.48,5.23,2.07,1.21,3.22-.5,4.81-2A21.73,21.73,0,0,0,63,90a62.24,62.24,0,0,0,3.25-8.53c2.31-7.09,4.35-15.13,6.61-22.42,2.79,1.56,4.42,5.54,6.63,8.3C81.26,58.82,81.8,45.59,75.33,40c-2.19-1.91-4.25-4.48-2.28-6.17a5.13,5.13,0,0,1,2.16-1c-4.24-1.37-8,5.2-11.38,3.54-1.47-.72-2.55-3.25-3.29-7.28a22.16,22.16,0,0,0-1.8,3.14c-.7,1.48-.91,2.65-1.52.14-2.51-10.39,4-20.11,10.11-23A23.53,23.53,0,0,0,61.5,19.49c4.81-8.6,13.22-10.33,20.09-11.55C69.66,1.36,52.08,13.3,54.67,33.32c-4.17,4-6.48,11-4.7,24.22l-.29,2c-2.54-2.19-6.23.11-8.61-2.11ZM34.91,40.84c1.3,0,2.39-1.68,2.56-3.91h0c-.18,3-1.51,5.29-3.09,5.25s-3-2.7-3-5.94,1.43-5.84,3.11-5.8,3,2.69,3,5.93c0-2.49-1.1-4.53-2.49-4.56s-2.56,2-2.59,4.46,1.09,4.54,2.49,4.57Zm-1.79-22.7c5.37.13,9.64,8,9.54,17.61S38.13,53,32.76,52.91s-9.63-8-9.53-17.61S27.76,18,33.12,18.14ZM53.25,58.89c2.48,4.66,5.46,3.85,8.4.78s3.94-7.41,4.37-12c-2,4.1-7.55,14.43-11.58,9.73-3.79-4.43-3.19-13.79.45-17.91,4.53-5.13,9.42-3.35,10.45,4.29,0-1.33-.29-3.42.26-4.55.78-1.59,1.83,1.61,2.34,2.88,3,7.51.43,16.43-1.11,24L65.62,64.2c0,6.76-1,12.24-3.06,16.53A26.73,26.73,0,0,1,60,84.92c-.45.64-.8.69-1,.15-.42-.93-.28-2.07-.79-3.12-.53,4.11-1.92,5.54-4.41,6.47C45.23,91.6,40.79,84,35.43,74.77l7,.71c-4.82-1.56-9.08-5-12.64-10.82a12.6,12.6,0,0,0,8.8-4C44.88,66.12,50,57.54,57.46,72.77c-.62-4.9-2.15-9-5.51-11.4a4.22,4.22,0,0,1,1.3-2.48Zm-33.2-38a47.8,47.8,0,0,0-3,18.82A64.68,64.68,0,0,0,20.3,54.36,35.88,35.88,0,0,1,16,39.56c-.45-6.45.67-14.42,3.27-19.72a32.14,32.14,0,0,1,7.1-9.1,48.05,48.05,0,0,0-6.33,10.12ZM4.8,33.73A64.76,64.76,0,0,0,8,48.42a35.92,35.92,0,0,1-4.29-14.8C3.28,27.16,4.4,19.19,7,13.89a32.31,32.31,0,0,1,7.11-9.1A48.16,48.16,0,0,0,7.77,14.91a47.83,47.83,0,0,0-3,18.82ZM79,59.08a32.9,32.9,0,0,1-5.09-7.88c-3-6.5,1.35-9.31,3.31-3.52A36,36,0,0,1,79,59.08Z" transform="translate(-2 -1)"/><path class="cls-2" d="M208.93,57.88c-2.38,2.22-6.07-.08-8.61,2.11L200,58c1.78-13.25-.53-20.17-4.7-24.23,2.59-20-14.46-29.22-25.28-19.1,6.87,1.22,13.64-3.33,18.45,5.27a23.53,23.53,0,0,0-5.83-10.12c6.16,2.84,12.62,12.56,10.11,22.95-.61,2.51-.82,1.34-1.52-.14a22.16,22.16,0,0,0-1.8-3.14c-.74,4-1.82,6.56-3.29,7.28-3.42,1.66-7.14-4.91-11.38-3.54a5.13,5.13,0,0,1,2.16,1c2,1.69-.09,4.26-2.28,6.17-6.47,5.64-5.93,18.88-4.15,27.39,2.21-2.77,3.84-6.75,6.63-8.31,2.26,7.29,4.3,15.33,6.61,22.42A61.75,61.75,0,0,0,187,90.39a21.73,21.73,0,0,0,4.72,6.19c1.59,1.51,2.74,3.22,4.81,2,3.13-1.84,6.35-3.32,9.48-5.23a15,15,0,0,0,6.59-7.09l3.8-7.22c2.76-5.32,3.61-11.07,8.28-16a18.38,18.38,0,0,0,5.76-5.57c10,.44,15.76-8.48,17.17-20.7,1-8.24.15-17.22-3-24.21-5.16-11.31-15.18-15.28-22-6.15-7.91-3.93-15.37,3.3-18.56,13.86-3.52,11.66-2.71,26.12,4.93,37.56Zm6.16-16.63c1.4,0,2.51-2.08,2.49-4.57s-1.19-4.5-2.59-4.46-2.51,2.07-2.49,4.56c0-3.24,1.31-5.89,3-5.93s3.07,2.56,3.11,5.8-1.31,5.91-3,6-2.91-2.28-3.09-5.26h0c.17,2.23,1.26,3.94,2.56,3.91Zm1.79-22.7c5.36-.12,9.79,7.56,9.89,17.16s-4.17,17.49-9.53,17.61-9.8-7.56-9.9-17.16,4.17-17.48,9.54-17.61ZM196.75,59.3a4.22,4.22,0,0,1,1.3,2.48c-3.36,2.43-4.89,6.5-5.51,11.4C200,58,205.12,66.53,211.38,61.06a12.6,12.6,0,0,0,8.8,4c-3.56,5.78-7.82,9.26-12.64,10.82l7-.71c-5.36,9.27-9.8,16.83-18.29,13.65-2.49-.93-3.88-2.36-4.41-6.46-.51,1-.37,2.18-.79,3.11-.24.54-.59.49-1-.15a26.73,26.73,0,0,1-2.6-4.19c-2.06-4.29-3.11-9.77-3.06-16.53l-1.21,1.93c-1.54-7.62-4.1-16.54-1.11-24.05.51-1.27,1.56-4.47,2.34-2.88.55,1.13.27,3.22.26,4.55,1-7.64,5.92-9.41,10.45-4.29,3.64,4.12,4.24,13.48.45,17.91-4,4.7-9.61-5.63-11.58-9.73.43,4.63,1.41,8.92,4.37,12s5.92,3.88,8.4-.78Zm33.2-38a48.05,48.05,0,0,0-6.33-10.12,32.14,32.14,0,0,1,7.1,9.1c2.6,5.3,3.72,13.27,3.27,19.73a35.88,35.88,0,0,1-4.29,14.79,64.68,64.68,0,0,0,3.22-14.68,47.8,47.8,0,0,0-3-18.82ZM245.2,34.14a47.83,47.83,0,0,0-3-18.82A48.16,48.16,0,0,0,235.9,5.2,32.31,32.31,0,0,1,243,14.3c2.59,5.3,3.71,13.27,3.26,19.73A35.92,35.92,0,0,1,242,48.83a64.76,64.76,0,0,0,3.22-14.69Zm-72.44,14c2-5.79,6.3-3,3.31,3.52A32.9,32.9,0,0,1,171,59.49,36,36,0,0,1,172.76,48.09Z" transform="translate(-2 -1)"/></svg>